<svg width="43" height="41" viewBox="0 0 43 41" fill="none" xmlns="http://www.w3.org/2000/svg">
<g clip-path="url(#clip0_134_721)">
<path d="M21.5003 25.6247C24.4689 25.6247 26.8753 23.3301 26.8753 20.4997C26.8753 17.6692 24.4689 15.3747 21.5003 15.3747C18.5318 15.3747 16.1253 17.6692 16.1253 20.4997C16.1253 23.3301 18.5318 25.6247 21.5003 25.6247Z" stroke="#434343" stroke-width="4" stroke-linecap="round" stroke-linejoin="round"/>
<path d="M34.7587 25.6247C34.5202 26.1399 34.449 26.7115 34.5544 27.2657C34.6598 27.8199 34.9369 28.3312 35.3499 28.7338L35.4574 28.8363C35.7906 29.1537 36.0549 29.5305 36.2352 29.9453C36.4155 30.36 36.5084 30.8046 36.5084 31.2536C36.5084 31.7026 36.4155 32.1472 36.2352 32.562C36.0549 32.9768 35.7906 33.3536 35.4574 33.6709C35.1246 33.9886 34.7294 34.2406 34.2944 34.4125C33.8594 34.5845 33.3931 34.673 32.9222 34.673C32.4513 34.673 31.985 34.5845 31.55 34.4125C31.115 34.2406 30.7198 33.9886 30.387 33.6709L30.2795 33.5684C29.8572 33.1746 29.3209 32.9104 28.7397 32.8099C28.1585 32.7094 27.5591 32.7773 27.0187 33.0047C26.4887 33.2212 26.0368 33.5808 25.7185 34.0391C25.4001 34.4975 25.2293 35.0345 25.227 35.5843V35.8747C25.227 36.7808 24.8495 37.6499 24.1775 38.2906C23.5055 38.9314 22.594 39.2913 21.6437 39.2913C20.6933 39.2913 19.7819 38.9314 19.1099 38.2906C18.4379 37.6499 18.0603 36.7808 18.0603 35.8747V35.7209C18.0465 35.1555 17.8545 34.6071 17.5094 34.147C17.1643 33.687 16.6821 33.3366 16.1253 33.1413C15.5849 32.9139 14.9855 32.8461 14.4043 32.9466C13.8231 33.0471 13.2868 33.3113 12.8645 33.7051L12.757 33.8076C12.4242 34.1253 12.029 34.3773 11.594 34.5492C11.159 34.7212 10.6927 34.8097 10.2218 34.8097C9.75088 34.8097 9.28459 34.7212 8.84958 34.5492C8.41457 34.3773 8.01937 34.1253 7.68658 33.8076C7.35341 33.4903 7.08911 33.1135 6.90878 32.6987C6.72845 32.2839 6.63563 31.8393 6.63563 31.3903C6.63563 30.9413 6.72845 30.4967 6.90878 30.0819C7.08911 29.6671 7.35341 29.2903 7.68658 28.973L7.79408 28.8705C8.20712 28.4679 8.4842 27.9565 8.58958 27.4023C8.69497 26.8482 8.62382 26.2766 8.38533 25.7613C8.15821 25.2561 7.7811 24.8251 7.30041 24.5216C6.81972 24.2181 6.25644 24.0552 5.67991 24.053H5.37533C4.42497 24.053 3.51353 23.693 2.84153 23.0523C2.16952 22.4115 1.79199 21.5425 1.79199 20.6363C1.79199 19.7302 2.16952 18.8611 2.84153 18.2204C3.51353 17.5796 4.42497 17.2197 5.37533 17.2197H5.53658C6.12961 17.2064 6.70475 17.0234 7.18724 16.6944C7.66972 16.3653 8.03723 15.9055 8.24199 15.3747C8.48049 14.8594 8.55163 14.2878 8.44625 13.7337C8.34087 13.1795 8.06379 12.6681 7.65074 12.2655L7.54324 12.163C7.21008 11.8457 6.94577 11.4689 6.76545 11.0541C6.58512 10.6393 6.4923 10.1947 6.4923 9.74572C6.4923 9.29671 6.58512 8.85211 6.76545 8.43734C6.94577 8.02256 7.21008 7.64574 7.54324 7.32842C7.87604 7.01075 8.27124 6.75874 8.70625 6.5868C9.14126 6.41486 9.60755 6.32636 10.0785 6.32636C10.5494 6.32636 11.0156 6.41486 11.4507 6.5868C11.8857 6.75874 12.2809 7.01075 12.6137 7.32842L12.7212 7.43092C13.1434 7.82476 13.6797 8.08895 14.2609 8.18943C14.8421 8.28991 15.4416 8.22208 15.982 7.99467H16.1253C16.6552 7.77812 17.1072 7.41855 17.4255 6.96022C17.7439 6.50189 17.9147 5.96481 17.917 5.41509V5.12467C17.917 4.21852 18.2945 3.34948 18.9665 2.70873C19.6385 2.06798 20.55 1.70801 21.5003 1.70801C22.4507 1.70801 23.3621 2.06798 24.0341 2.70873C24.7061 3.34948 25.0837 4.21852 25.0837 5.12467V5.27842C25.086 5.82814 25.2568 6.36522 25.5751 6.82355C25.8935 7.28188 26.3454 7.64145 26.8753 7.85801C27.4157 8.08541 28.0152 8.15325 28.5964 8.05277C29.1776 7.95228 29.7139 7.68809 30.1362 7.29426L30.2437 7.19176C30.5765 6.87409 30.9717 6.62208 31.4067 6.45014C31.8417 6.2782 32.308 6.18969 32.7789 6.18969C33.2498 6.18969 33.7161 6.2782 34.1511 6.45014C34.5861 6.62208 34.9813 6.87409 35.3141 7.19176C35.6472 7.50907 35.9115 7.88589 36.0919 8.30067C36.2722 8.71545 36.365 9.16005 36.365 9.60905C36.365 10.0581 36.2722 10.5027 36.0919 10.9174C35.9115 11.3322 35.6472 11.709 35.3141 12.0263L35.2066 12.1288C34.7935 12.5315 34.5165 13.0428 34.4111 13.597C34.3057 14.1512 34.3768 14.7227 34.6153 15.238V15.3747C34.8424 15.8799 35.2196 16.3109 35.7002 16.6144C36.1809 16.9179 36.7442 17.0808 37.3207 17.083H37.6253C38.5757 17.083 39.4871 17.443 40.1591 18.0837C40.8311 18.7245 41.2087 19.5935 41.2087 20.4997C41.2087 21.4058 40.8311 22.2749 40.1591 22.9156C39.4871 23.5564 38.5757 23.9163 37.6253 23.9163H37.4641C36.8875 23.9185 36.3243 24.0814 35.8436 24.3849C35.3629 24.6885 34.9858 25.1194 34.7587 25.6247Z" stroke="#434343" stroke-width="4" stroke-linecap="round" stroke-linejoin="round"/>
</g>
<defs>
<clipPath id="clip0_134_721">
<rect width="43" height="41" fill="white"/>
</clipPath>
</defs>
</svg>
